<svg xmlns="http://www.w3.org/2000/svg" viewBox="0 0 1055 788">
<path fill="#fff" fill-rule="evenodd" d="M505 105L547 107L547 108L555 108L555 109L576 112L576 113L580 113L584 115L589 115L589 116L610 122L612 124L618 125L620 127L623 127L659 145L660 147L664 148L666 151L670 152L672 155L680 159L690 168L692 168L709 185L711 185L716 190L716 192L724 199L724 201L731 207L731 209L735 212L735 214L742 221L742 223L748 230L749 234L753 238L754 242L758 246L764 260L759 261L759 262L755 261L752 253L750 252L748 246L746 245L745 241L743 240L742 236L740 235L736 227L733 225L733 223L730 221L727 215L721 210L721 208L711 199L711 197L703 189L701 189L692 179L690 179L687 175L685 175L677 167L675 167L674 165L672 165L671 163L669 163L667 160L660 157L659 155L655 154L654 152L650 151L649 149L643 147L642 145L632 140L629 140L623 136L620 136L608 130L602 129L600 127L596 127L590 124L586 124L586 123L578 122L574 120L569 120L569 119L564 119L564 118L559 118L559 117L542 116L542 115L530 115L530 114L494 114L494 115L467 117L467 118L456 119L456 120L451 120L451 121L447 121L444 123L435 124L435 125L426 127L424 129L415 131L411 134L405 135L401 138L398 138L384 145L380 149L372 152L371 154L367 155L366 157L364 157L363 159L361 159L360 161L352 165L349 169L347 169L344 173L342 173L339 177L337 177L333 182L331 182L309 204L309 206L299 216L297 221L294 223L294 225L291 227L289 232L286 234L279 248L277 249L273 259L270 262L265 261L263 258L271 242L275 238L276 234L278 233L282 225L285 223L287 218L290 216L290 214L303 200L303 198L324 177L326 177L337 166L339 166L341 163L343 163L345 160L347 160L349 157L351 157L353 154L360 151L367 145L375 142L376 140L402 127L410 125L412 123L415 123L415 122L418 122L418 121L421 121L421 120L424 120L430 117L434 117L437 115L441 115L444 113L459 111L463 109L487 107L487 106L505 106Z M503 118L540 119L540 120L555 121L555 122L580 126L583 128L587 128L587 129L614 137L618 140L621 140L649 154L650 156L657 159L658 161L660 161L661 163L669 167L671 170L676 172L682 178L684 178L715 208L715 210L721 215L721 217L725 220L725 222L732 229L737 239L739 240L744 250L746 251L752 263L751 265L747 265L740 251L738 250L737 246L735 245L735 243L733 242L733 240L731 239L727 231L720 224L717 218L709 211L709 209L689 189L687 189L683 184L681 184L678 180L676 180L674 177L672 177L670 174L668 174L666 171L664 171L657 165L653 164L652 162L648 161L642 156L634 153L633 151L630 151L615 143L609 142L607 140L601 139L599 137L596 137L590 134L586 134L586 133L582 133L582 132L574 131L574 130L569 130L569 129L564 129L560 127L554 127L554 126L525 124L525 123L486 124L486 125L479 125L479 126L460 128L456 130L450 130L450 131L439 133L433 136L426 137L422 140L411 143L407 146L404 146L386 155L385 157L381 158L380 160L374 162L373 164L363 169L356 176L354 176L352 179L346 182L342 187L340 187L314 213L314 215L306 223L306 225L300 231L296 239L293 241L292 245L290 246L287 253L285 254L281 264L276 265L275 262L277 258L279 257L280 253L282 252L285 244L287 243L287 241L289 240L289 238L291 237L295 229L298 227L300 222L311 211L311 209L316 205L316 203L330 189L332 189L337 183L339 183L344 177L346 177L349 173L354 171L356 168L358 168L359 166L361 166L362 164L364 164L365 162L367 162L374 156L414 136L417 136L419 134L429 132L435 129L439 129L439 128L454 125L454 124L470 122L470 121L487 120L487 119L503 119Z M526 137L540 137L540 138L555 139L561 143L561 145L564 147L564 149L567 152L565 164L556 164L556 163L552 163L551 154L548 151L539 150L539 149L535 149L531 151L530 157L529 157L529 165L528 165L526 196L528 199L531 199L531 200L541 200L542 201L546 198L547 187L540 184L540 178L541 178L542 173L567 176L567 183L566 183L566 186L562 188L561 204L558 209L548 214L525 212L525 211L519 210L510 199L510 188L511 188L515 149L516 149L516 146Z M440 145L445 145L447 148L448 155L446 156L446 163L447 163L457 196L459 198L459 202L461 205L466 206L466 209L468 212L467 217L456 220L456 221L452 221L450 223L446 223L445 219L443 217L443 212L446 209L445 209L445 205L444 205L431 163L430 162L426 163L424 160L423 154L422 154L423 151L440 146Z M370 178L379 185L381 190L375 196L372 196L372 195L366 196L356 206L356 208L365 219L370 218L373 214L375 214L381 208L384 208L389 213L390 217L376 229L376 232L386 244L391 243L395 247L397 252L394 254L391 258L389 258L386 262L384 262L380 267L377 266L377 264L372 260L373 254L371 253L367 245L361 240L361 238L353 230L353 228L349 225L349 223L344 218L338 219L335 216L335 214L332 212L335 206L337 206L342 200L344 200L349 194L351 194L357 187L359 187L361 184L363 184L365 181L367 181Z M653 179L657 179L658 181L665 184L668 188L672 190L672 194L667 204L664 215L660 221L658 229L655 233L655 236L653 238L653 241L652 241L652 244L649 250L651 256L644 263L638 258L636 258L633 254L631 254L626 249L628 245L631 243L631 241L637 240L637 237L640 233L640 230L635 226L630 221L627 221L624 225L620 227L620 234L616 240L613 240L606 234L599 231L597 227L599 223L601 222L601 220L603 219L607 220L608 218L610 218L617 210L619 210L637 192L639 192L644 186L646 186Z M652 197L647 204L645 204L640 210L638 210L638 214L640 214L641 216L646 218L648 211L651 207L651 204L654 200L654 197Z M486 197L492 197L494 199L494 205L495 205L495 211L486 212L486 213L481 213L480 207L479 207L479 199L486 198Z M576 207L581 207L589 211L589 216L588 216L586 224L581 224L579 222L575 222L572 220L572 216L573 216L573 213Z M423 217L427 217L427 219L432 225L432 230L430 230L424 235L420 235L420 234L414 223Z M503 223L536 224L536 225L541 225L541 226L546 226L546 227L562 230L562 231L569 232L577 236L580 236L598 245L599 247L603 248L604 250L608 251L610 254L615 256L617 259L619 259L642 281L642 283L649 290L648 294L638 295L638 293L634 290L634 288L615 270L607 266L605 263L600 261L598 258L594 257L593 255L575 246L572 246L572 245L569 245L569 244L566 244L566 243L563 243L563 242L560 242L554 239L541 237L541 236L523 235L523 234L506 234L506 235L493 235L493 236L482 237L482 238L470 240L470 241L455 245L453 247L450 247L448 249L445 249L435 254L434 256L430 257L429 259L425 260L423 263L421 263L419 266L413 269L392 289L392 291L388 295L377 293L377 290L380 288L380 286L388 279L388 277L397 268L399 268L409 258L411 258L413 255L423 250L427 246L445 237L448 237L452 234L458 233L458 232L462 232L465 230L469 230L469 229L477 228L481 226L492 225L492 224L503 224Z M812 248L814 249L814 253L813 253L810 265L807 268L806 272L804 273L803 277L800 279L800 281L796 284L796 286L793 289L791 289L788 293L786 293L783 297L781 297L776 302L771 303L770 305L766 307L763 307L759 310L756 310L750 313L746 313L746 314L742 314L739 316L726 318L726 319L722 319L722 320L718 320L718 321L714 321L710 323L705 323L701 325L677 329L671 332L667 332L667 333L649 338L641 342L641 343L646 343L646 342L652 342L652 341L657 341L661 339L678 338L678 337L685 337L685 336L692 336L692 335L700 335L700 334L705 334L705 333L712 333L712 332L723 331L723 330L728 330L728 329L735 329L738 327L744 327L744 326L760 323L760 322L769 320L771 318L774 318L782 313L785 313L784 318L781 324L779 325L778 329L776 330L776 332L762 346L760 346L758 349L754 350L753 352L747 355L744 355L744 356L741 356L741 357L738 357L738 358L735 358L729 361L717 362L717 363L712 363L712 364L702 364L702 365L693 365L693 366L660 369L660 370L654 370L654 371L646 371L646 372L641 372L641 373L631 375L631 376L628 376L622 379L623 381L623 380L645 379L645 378L709 377L709 376L716 376L716 375L738 373L742 371L743 372L742 375L724 392L710 399L707 399L703 402L689 404L689 405L680 406L680 407L662 407L662 408L660 407L619 407L619 408L601 409L602 411L613 411L613 412L625 413L629 415L636 415L636 416L648 417L648 418L674 419L674 421L669 426L667 426L666 428L656 433L646 435L646 436L637 436L637 437L622 436L622 435L615 435L615 434L608 434L608 433L601 433L601 432L583 432L583 433L577 433L577 434L571 435L561 442L561 444L556 449L555 456L573 483L573 487L571 489L573 494L583 504L587 502L592 502L592 501L600 501L600 502L605 503L610 508L609 518L607 518L607 516L603 512L600 512L600 511L598 512L601 518L601 523L598 529L595 529L595 524L593 523L593 521L586 516L580 516L580 517L573 519L573 521L571 522L571 528L568 528L565 523L565 518L567 516L568 511L570 510L569 506L558 498L551 499L541 489L536 488L541 508L543 510L546 521L550 527L550 530L555 538L555 541L546 542L546 541L534 540L531 535L528 520L526 517L525 517L525 522L526 522L528 540L500 541L499 540L500 531L501 531L501 519L500 519L498 530L496 532L496 535L493 541L473 541L472 537L475 533L475 530L487 506L487 501L489 499L489 495L491 492L490 487L487 488L483 493L481 493L476 499L468 499L458 507L457 510L461 516L461 525L459 528L456 528L456 523L453 519L447 516L443 516L443 517L439 517L438 519L436 519L432 525L432 529L429 529L426 523L428 512L422 513L421 516L417 518L417 514L416 514L417 507L421 503L426 502L426 501L435 501L435 502L443 504L455 492L456 489L453 486L453 484L455 480L457 479L458 475L460 474L460 472L462 471L462 469L465 467L465 465L468 463L468 461L470 460L472 456L471 448L461 438L459 438L457 435L453 435L448 432L445 432L445 433L444 432L430 432L430 433L426 432L426 433L421 433L421 434L414 434L414 435L407 435L407 436L400 436L400 437L395 437L395 436L388 437L388 436L378 435L378 434L369 432L361 428L359 425L357 425L353 421L353 419L370 419L370 418L378 419L381 417L384 417L384 418L392 417L392 416L398 416L402 414L422 412L426 410L411 408L411 407L409 408L406 408L406 407L377 407L377 408L376 407L364 407L363 408L363 407L341 406L341 405L335 405L335 404L331 404L328 402L324 402L300 390L295 384L293 384L287 378L284 371L299 373L303 375L312 375L312 376L319 376L319 377L333 377L333 378L353 378L353 379L354 378L356 379L369 378L369 379L395 379L395 380L405 380L405 379L399 376L393 375L393 374L380 372L380 371L309 363L309 362L304 362L304 361L300 361L300 360L296 360L296 359L283 356L271 350L270 348L266 347L262 342L260 342L255 337L255 335L250 331L249 327L247 326L244 320L244 317L242 316L242 313L245 313L249 316L252 316L256 319L259 319L259 320L262 320L268 323L290 327L294 329L327 334L327 335L333 335L333 336L363 339L363 340L375 341L379 343L386 343L386 344L388 343L382 339L379 339L379 338L376 338L370 335L366 335L363 333L355 332L352 330L348 330L348 329L344 329L344 328L340 328L336 326L330 326L330 325L326 325L322 323L317 323L313 321L308 321L308 320L288 316L282 313L277 313L277 312L268 310L266 308L263 308L259 305L252 303L251 301L243 297L240 293L238 293L226 281L226 279L224 278L223 274L221 273L218 267L213 249L218 250L219 252L225 254L226 256L238 262L241 262L245 265L248 265L250 267L253 267L257 270L260 270L262 272L265 272L275 277L279 277L279 278L282 278L282 279L285 279L285 280L288 280L288 281L291 281L297 284L301 284L303 286L318 289L321 291L361 300L361 301L376 304L376 305L381 305L384 307L396 309L399 311L403 311L406 313L410 313L413 315L426 318L436 323L443 329L454 355L456 356L456 358L458 359L460 363L468 367L478 366L484 360L484 357L487 351L488 342L489 342L491 329L493 325L489 323L488 321L486 321L484 317L494 315L513 305L521 304L521 303L528 303L532 305L533 307L547 306L552 310L554 314L554 319L544 319L543 321L537 324L535 328L535 339L536 339L536 343L537 343L540 355L542 359L544 360L544 362L549 366L557 367L557 366L564 364L570 359L575 349L577 348L577 345L579 344L580 338L583 332L585 331L585 329L591 323L593 323L599 318L602 318L604 316L611 315L614 313L619 313L621 311L631 310L631 309L635 309L638 307L666 301L668 299L674 299L676 297L681 297L681 296L705 291L708 289L716 288L719 286L723 286L726 284L734 283L736 281L740 281L742 279L746 279L748 277L761 274L775 267L778 267L784 263L787 263L795 259L796 257L804 254L805 252L809 251Z M661 262L663 262L668 267L668 269L670 270L670 275L666 277L664 280L659 281L653 274L652 269Z M788 332L790 333L790 337L791 337L792 351L793 351L793 357L794 357L794 371L795 371L795 405L794 405L794 416L793 416L791 438L790 438L789 447L788 447L786 459L784 462L784 466L783 466L777 487L775 489L775 492L769 502L769 505L759 525L757 526L756 530L753 532L752 536L750 537L749 541L747 542L743 550L740 552L740 554L736 557L736 559L728 567L728 569L716 580L716 582L704 594L702 594L694 603L692 603L688 608L686 608L683 612L681 612L676 617L668 621L666 624L662 625L661 627L649 633L648 635L632 643L629 643L621 648L618 648L616 650L610 651L608 653L605 653L605 654L602 654L602 655L599 655L593 658L589 658L586 660L582 660L582 661L578 661L578 662L574 662L570 664L544 667L544 668L531 668L531 669L499 669L499 668L484 668L484 667L469 666L469 665L463 665L459 663L454 663L454 662L438 659L438 658L431 657L431 656L422 654L420 652L414 651L410 648L402 646L398 643L395 643L381 636L380 634L374 632L370 628L361 624L359 621L355 620L353 617L351 617L349 614L343 611L340 607L338 607L335 603L333 603L327 596L325 596L306 577L306 575L299 569L299 567L295 564L292 558L284 550L284 548L282 547L282 545L276 538L275 534L271 530L269 524L267 523L254 497L253 491L250 487L250 484L249 484L249 481L248 481L248 478L247 478L247 475L246 475L246 472L243 466L243 462L241 459L241 455L240 455L238 443L237 443L237 438L236 438L234 417L233 417L233 403L232 403L232 367L233 367L234 348L235 348L235 342L236 342L236 336L237 336L237 333L239 333L241 338L244 341L242 363L241 363L241 374L240 374L240 395L241 395L243 428L244 428L247 448L248 448L249 456L250 456L251 463L253 466L253 470L254 470L259 486L263 492L263 495L266 499L266 502L273 516L275 517L276 521L278 522L279 526L281 527L282 531L284 532L284 534L286 535L286 537L288 538L288 540L290 541L294 549L297 551L300 557L306 562L306 564L313 570L313 572L329 588L331 588L339 597L341 597L344 601L346 601L356 610L361 612L363 615L373 620L374 622L378 623L379 625L383 626L384 628L400 636L403 636L411 641L414 641L419 644L422 644L422 645L425 645L431 648L435 648L441 651L445 651L445 652L456 654L456 655L466 656L466 657L488 659L488 660L500 660L500 661L527 661L527 660L550 659L550 658L556 658L556 657L576 654L579 652L590 650L590 649L608 644L610 642L616 641L622 637L625 637L639 630L640 628L655 621L656 619L664 615L666 612L671 610L673 607L675 607L677 604L682 602L685 598L687 598L695 589L697 589L717 569L717 567L728 556L728 554L731 552L733 547L736 545L740 537L743 535L744 531L746 530L747 526L752 520L756 510L758 509L763 499L764 493L769 484L770 478L772 476L772 472L776 464L776 460L777 460L777 456L778 456L778 452L780 448L780 442L781 442L781 438L783 434L785 412L786 412L787 379L786 379L786 364L785 364L783 339L785 338Z M248 347L250 347L252 350L251 372L250 372L251 415L252 415L253 429L254 429L254 434L255 434L255 439L256 439L256 444L257 444L257 449L258 449L258 453L260 456L260 460L261 460L265 475L267 477L268 483L271 487L271 490L275 496L275 499L281 511L283 512L289 525L291 526L291 528L293 529L297 537L300 539L302 544L305 546L305 548L308 550L308 552L315 558L315 560L321 565L321 567L334 580L336 580L343 588L345 588L349 593L351 593L354 597L356 597L358 600L363 602L365 605L367 605L374 611L392 620L393 622L401 626L404 626L408 629L411 629L417 633L420 633L422 635L425 635L425 636L428 636L434 639L438 639L444 642L448 642L448 643L452 643L452 644L456 644L460 646L465 646L465 647L470 647L470 648L485 649L485 650L492 650L492 651L535 651L535 650L544 650L544 649L563 647L563 646L587 641L587 640L599 637L601 635L607 634L609 632L612 632L614 630L617 630L641 618L642 616L648 614L649 612L651 612L652 610L654 610L655 608L657 608L658 606L666 602L668 599L670 599L672 596L678 593L683 587L685 587L711 561L711 559L717 554L717 552L725 544L729 536L732 534L732 532L736 528L745 510L747 509L754 495L754 492L757 488L759 480L761 478L761 475L762 475L762 472L763 472L763 469L766 463L766 459L768 456L771 440L772 440L772 434L773 434L774 423L775 423L775 415L776 415L777 372L776 372L776 361L775 361L774 351L776 348L779 348L780 360L781 360L781 369L782 369L781 416L780 416L780 424L779 424L779 431L778 431L776 446L775 446L773 458L772 458L772 461L771 461L771 464L770 464L770 467L769 467L769 470L766 476L766 480L763 484L760 494L748 518L746 519L745 523L741 527L740 531L738 532L738 534L736 535L732 543L729 545L729 547L722 554L722 556L708 570L708 572L695 585L693 585L689 590L687 590L681 597L679 597L676 601L674 601L668 607L666 607L659 613L655 614L648 620L642 622L641 624L625 632L622 632L618 635L615 635L613 637L610 637L598 643L594 643L591 645L587 645L584 647L572 649L569 651L559 652L559 653L546 654L546 655L535 655L535 656L507 657L507 656L489 656L489 655L474 654L474 653L459 651L459 650L435 645L427 641L421 640L419 638L416 638L414 636L411 636L407 633L404 633L396 628L393 628L392 626L386 624L380 619L369 614L368 612L363 610L361 607L359 607L357 604L355 604L353 601L351 601L349 598L347 598L343 593L341 593L338 589L336 589L308 560L308 558L300 550L300 548L295 543L295 541L293 540L293 538L291 537L291 535L285 528L284 524L280 520L267 494L267 491L264 487L264 484L262 482L262 479L261 479L261 476L260 476L260 473L259 473L259 470L258 470L258 467L257 467L257 464L254 458L250 436L249 436L249 429L248 429L247 417L246 417L246 406L245 406L245 368L246 368L246 358L247 358Z M174 394L176 394L177 400L182 410L184 420L185 420L186 430L187 430L187 449L186 449L184 476L185 476L185 481L186 481L187 488L188 488L188 491L191 497L191 501L194 504L193 499L192 499L192 494L191 494L191 477L192 477L192 470L193 470L194 464L196 462L196 459L199 453L203 450L206 444L209 442L211 443L211 451L212 451L211 478L210 478L210 482L206 490L206 493L201 502L199 511L197 513L197 517L200 521L201 527L206 535L206 538L213 552L215 553L212 547L212 543L211 543L211 539L209 535L209 512L210 512L210 507L211 507L215 494L217 493L218 490L221 491L223 501L225 504L226 516L227 516L227 537L226 537L226 543L224 547L221 565L223 569L225 570L225 572L227 573L227 575L229 576L229 578L231 579L231 581L233 582L233 584L235 585L235 587L237 588L237 590L243 596L241 589L237 583L237 580L234 574L234 566L233 566L234 547L235 547L237 537L240 536L241 540L243 541L245 545L245 548L247 549L247 552L251 560L252 568L253 568L254 611L256 612L256 614L281 639L284 640L283 637L278 633L278 631L272 625L268 617L266 608L265 608L264 585L265 585L265 579L268 579L270 583L273 585L273 587L276 589L277 593L279 594L286 608L286 612L287 612L287 615L290 621L291 630L292 630L293 644L295 646L295 650L298 653L300 653L302 656L307 658L309 661L316 664L318 667L322 668L323 670L327 672L328 671L321 664L319 664L317 660L311 655L310 651L308 650L303 640L301 628L300 628L300 616L302 616L306 621L308 621L318 631L318 633L322 636L322 638L325 640L325 642L329 646L333 654L333 657L335 659L335 662L338 666L342 680L345 681L346 683L353 685L373 695L382 697L376 694L375 692L371 691L367 687L365 687L356 678L356 676L352 673L352 671L349 669L345 661L343 651L342 651L342 648L346 648L349 651L361 657L380 675L380 677L386 684L395 702L403 704L403 705L411 706L414 708L418 708L421 710L426 710L426 711L431 711L431 712L436 712L436 711L426 708L416 703L411 698L409 698L394 681L390 673L390 670L394 670L404 675L407 675L419 681L420 683L424 684L426 687L428 687L442 702L442 704L444 705L444 707L446 708L448 712L448 715L492 724L492 725L499 726L499 727L502 727L502 728L505 728L511 731L517 731L525 727L529 727L532 725L536 725L536 724L540 724L540 723L544 723L548 721L568 718L572 716L578 716L585 702L598 688L600 688L602 685L604 685L608 681L620 675L633 671L633 670L637 670L637 673L633 681L631 682L629 687L616 700L612 701L606 706L603 706L599 709L589 712L589 713L594 713L594 712L603 711L603 710L607 710L607 709L611 709L614 707L618 707L621 705L631 703L633 702L640 686L642 685L647 675L665 658L667 658L669 655L673 654L674 652L676 652L677 650L683 647L685 648L684 656L682 658L680 666L678 667L674 675L663 686L661 686L659 689L655 690L651 694L645 696L644 698L657 694L661 691L664 691L672 686L675 686L685 681L686 680L685 677L689 670L691 661L700 643L705 638L705 636L710 632L710 630L717 623L719 623L725 616L727 616L727 630L726 630L724 641L719 651L714 656L714 658L706 666L704 666L701 670L697 672L699 673L702 670L706 669L707 667L709 667L710 665L712 665L713 663L715 663L716 661L724 657L726 654L728 654L731 650L733 650L736 625L737 625L740 610L749 592L751 591L751 589L753 588L753 586L756 584L756 582L759 579L762 580L762 584L763 584L763 602L762 602L761 612L760 612L760 615L756 623L754 624L752 629L749 631L749 633L744 638L746 639L752 632L754 632L761 625L761 623L774 611L773 572L774 572L774 567L776 564L778 554L786 538L787 537L790 538L792 546L793 546L794 568L793 568L793 574L792 574L791 581L782 599L790 591L795 581L800 576L800 574L802 573L802 571L804 570L806 566L806 563L804 561L804 554L803 554L803 550L801 546L801 541L800 541L800 530L799 530L800 513L801 513L802 503L803 503L806 491L809 490L811 492L814 498L814 501L816 503L816 506L817 506L817 511L818 511L818 532L817 532L815 545L814 545L811 555L815 551L821 539L821 536L826 528L827 522L830 518L830 513L828 511L828 508L821 494L821 491L819 489L817 479L816 479L816 474L815 474L815 469L814 469L815 449L816 449L816 444L820 443L823 446L823 448L826 450L827 454L829 455L832 461L834 473L835 473L835 479L836 479L836 493L835 493L835 499L834 499L834 504L835 504L835 501L837 499L837 495L838 495L838 492L841 486L842 478L843 478L843 463L842 463L842 454L841 454L841 426L842 426L844 412L845 412L845 409L847 407L847 404L848 404L848 401L851 395L853 395L856 400L857 406L859 408L860 416L861 416L861 423L862 423L861 442L859 445L857 455L854 459L854 462L850 470L847 473L845 486L844 486L844 490L842 493L842 498L841 498L838 510L841 506L841 503L844 499L844 496L848 488L850 487L850 485L852 484L853 480L855 479L857 474L860 472L860 470L876 454L878 454L885 447L887 448L887 452L886 452L886 458L885 458L885 463L884 463L882 472L877 482L873 486L873 488L859 502L857 502L850 508L846 509L839 515L837 515L836 513L834 520L832 522L831 528L829 530L829 533L813 565L815 564L816 560L819 558L819 556L823 552L826 545L829 543L832 537L837 533L837 531L841 527L843 527L850 519L852 519L853 517L855 517L862 511L866 510L867 508L871 507L872 511L870 513L869 519L866 523L865 528L863 529L863 531L861 532L857 540L847 550L845 550L843 553L841 553L837 557L823 564L820 564L814 568L812 565L807 575L805 576L801 584L798 586L798 588L796 589L796 591L791 596L791 598L789 599L789 601L786 603L786 605L783 607L782 610L784 610L787 607L787 605L810 583L812 583L813 581L817 580L818 578L832 571L843 568L845 566L849 567L847 573L845 574L841 582L836 586L836 588L828 596L826 596L824 599L822 599L818 603L811 605L807 608L794 611L794 612L786 613L783 615L778 614L776 618L745 647L747 648L748 646L750 646L755 641L762 638L769 632L777 628L780 628L782 626L801 622L801 621L808 621L808 620L815 620L815 623L799 639L797 639L792 644L789 644L788 646L784 648L781 648L777 651L769 652L766 654L760 654L760 655L740 655L740 656L735 655L730 660L728 660L726 663L721 665L719 668L717 668L713 672L709 673L708 675L704 676L703 678L695 682L695 683L698 683L719 672L734 669L734 668L739 668L739 667L771 666L773 667L771 671L769 671L767 674L762 676L757 681L751 684L748 684L747 686L741 687L741 688L726 690L726 691L706 691L706 690L698 690L698 689L691 689L691 688L685 687L664 698L661 698L659 700L656 700L654 702L651 702L649 704L642 706L644 707L644 706L648 706L648 705L652 705L652 704L656 704L656 703L660 703L664 701L672 701L672 700L697 700L697 701L703 701L703 702L720 705L721 708L718 709L717 711L710 713L708 715L698 717L698 718L674 720L674 719L663 719L663 718L654 717L654 716L644 714L644 713L641 713L641 712L638 712L632 709L632 710L628 710L628 711L614 714L611 716L589 720L589 722L598 721L598 720L626 720L626 721L637 722L637 723L655 728L657 730L664 732L666 735L659 737L659 738L654 738L654 739L649 739L649 740L644 740L644 741L628 741L628 740L626 741L626 740L618 740L618 739L609 738L609 737L600 735L584 727L582 725L583 722L563 725L563 726L554 727L554 728L550 728L550 729L546 729L546 730L542 730L539 732L529 734L527 735L527 737L552 749L553 751L555 751L556 753L558 753L559 755L561 755L562 757L564 757L570 762L570 767L568 771L566 772L566 774L562 773L552 763L550 763L548 760L546 760L541 755L537 754L535 751L515 741L512 741L494 750L487 756L477 761L472 767L466 770L463 774L460 774L457 768L457 765L456 765L457 761L459 761L461 758L463 758L464 756L466 756L467 754L469 754L476 748L484 745L485 743L490 742L491 740L497 737L500 737L501 735L490 732L490 731L482 730L479 728L475 728L475 727L446 722L445 726L427 735L421 736L419 738L414 738L414 739L400 740L400 741L386 741L386 740L373 739L373 738L362 736L361 735L362 732L365 732L369 729L378 727L386 723L394 722L394 721L412 720L412 719L429 720L429 721L436 721L436 722L443 722L443 721L410 714L410 713L400 711L397 709L392 709L391 711L385 712L377 716L363 718L363 719L353 719L353 720L330 718L330 717L315 713L309 710L308 708L306 708L307 705L324 702L324 701L330 701L330 700L356 700L356 701L368 702L368 703L375 704L375 705L382 706L382 707L387 707L387 706L374 702L367 698L364 698L360 695L357 695L343 687L339 687L337 689L328 689L328 690L319 690L319 691L300 691L300 690L295 690L295 689L287 688L279 684L276 684L272 682L271 680L267 679L261 673L259 673L254 668L255 666L278 666L278 667L294 668L294 669L302 670L310 674L313 674L334 685L336 685L335 683L323 677L322 675L318 674L317 672L313 671L311 668L309 668L308 666L306 666L305 664L297 660L292 655L290 656L269 655L269 654L262 654L262 653L254 652L249 649L243 648L239 646L238 644L232 642L230 639L228 639L212 623L212 620L222 620L222 621L235 623L235 624L250 628L260 633L267 639L271 640L278 646L280 645L271 636L269 636L268 633L265 632L261 628L261 626L251 616L246 616L243 614L225 610L203 599L188 584L188 582L186 581L186 579L184 578L184 576L182 575L179 569L179 566L183 566L185 568L188 568L190 570L193 570L197 573L200 573L210 578L211 580L218 583L225 591L227 591L241 606L242 605L238 601L238 599L235 597L235 595L233 594L233 592L231 591L227 583L224 581L222 576L219 574L217 568L212 568L211 566L206 565L190 557L184 551L179 549L171 541L171 539L168 537L163 527L161 526L161 523L156 513L156 507L158 507L159 509L163 510L164 512L168 513L173 518L178 520L181 524L183 524L191 532L191 534L195 537L195 539L199 542L199 544L202 546L204 551L209 556L202 542L202 539L199 535L199 532L195 526L192 516L187 515L182 510L172 505L157 491L157 489L154 487L154 485L149 480L147 473L145 471L143 462L142 462L142 456L141 456L141 450L140 450L141 448L145 449L155 459L157 459L159 463L163 465L163 467L168 471L168 473L173 478L174 482L179 488L186 502L186 505L188 507L188 503L185 497L183 484L181 480L181 474L178 471L172 459L171 453L168 449L167 440L166 440L166 427L165 427L166 416L167 416L169 403Z M694 418L697 419L696 427L695 427L692 444L691 444L689 453L687 455L685 464L676 482L674 483L672 489L667 494L664 501L657 508L657 510L649 517L649 519L643 523L641 527L639 527L633 534L631 534L627 539L625 539L623 542L618 544L616 547L614 547L613 549L609 550L603 555L587 563L581 564L573 568L569 568L567 570L555 572L552 574L533 576L533 577L520 577L520 578L492 577L492 576L479 575L479 574L459 570L456 568L452 568L452 567L444 565L440 562L437 562L425 556L424 554L415 550L414 548L406 544L404 541L402 541L400 538L398 538L369 509L369 507L363 501L363 499L357 492L356 488L352 484L344 468L342 460L340 458L338 449L335 444L333 432L332 432L331 419L335 419L337 421L342 422L343 430L345 433L345 437L346 437L346 441L347 441L350 453L368 489L371 491L371 493L374 495L377 501L382 505L382 507L399 524L401 524L404 528L406 528L413 535L418 537L420 540L422 540L426 544L432 546L433 548L438 549L442 552L445 552L449 555L455 556L457 558L461 558L463 560L472 561L475 563L485 564L485 565L518 567L518 566L531 566L531 565L551 563L551 562L569 558L571 556L584 552L600 544L604 540L608 539L610 536L612 536L617 531L619 531L623 526L625 526L629 521L631 521L643 509L643 507L649 502L649 500L654 496L654 494L656 493L656 491L662 484L663 480L665 479L673 463L676 453L678 451L681 438L682 438L682 434L683 434L683 430L684 430L685 422L692 420Z M298 422L303 423L303 428L296 430L292 434L304 436L305 442L284 445L283 444L284 441L292 440L293 438L282 437L282 433L289 429L281 429L281 425L298 423Z M724 422L728 422L736 429L746 431L746 434L745 435L743 434L732 434L728 436L722 436L723 433L730 431L730 429L724 425Z M741 444L743 444L743 450L742 450L741 456L736 456L733 454L720 452L719 448L721 447L721 448L738 451Z M286 452L309 453L310 457L304 462L297 465L291 469L289 468L289 465L293 463L293 459L292 457L286 456Z M716 462L737 463L738 464L738 467L731 468L730 470L730 474L733 475L734 478L730 479L728 477L714 467L714 463Z M311 469L314 469L316 472L316 475L317 475L316 483L307 488L299 488L297 486L294 482L293 477L300 473L311 470Z M310 474L310 475L307 475L305 477L298 479L298 482L300 483L300 484L306 484L312 481L313 475Z M710 476L713 477L713 480L712 480L713 483L723 488L726 488L728 490L727 493L720 491L711 486L708 488L708 490L704 489Z M319 489L324 490L328 499L324 500L321 494L317 496L319 503L315 503L315 501L311 499L309 500L311 509L308 510L305 503L303 502L303 498L318 491Z M700 495L703 495L720 505L720 508L716 508L713 505L701 500Z M336 515L339 515L340 519L334 522L332 525L330 525L326 529L324 529L324 530L321 530L321 526L323 526L325 523L327 523L329 520L331 520Z M688 515L691 515L693 518L699 521L706 528L705 531L691 529L692 532L694 532L695 534L699 536L698 540L693 538L690 534L688 534L686 531L684 531L680 527L682 523L695 525L691 520L688 519Z M344 524L348 526L348 529L343 539L348 537L350 534L354 534L354 537L350 541L348 541L344 546L342 546L340 549L336 549L336 544L340 537L340 534L338 534L332 540L330 540L329 537L334 532L336 532L340 527L342 527Z M673 533L676 533L678 536L680 536L690 546L690 549L689 549L689 550L686 549L680 542L678 542L673 537Z M658 548L661 549L661 551L656 555L656 558L658 560L661 559L663 556L666 558L662 562L662 566L667 567L669 564L672 563L673 567L669 569L666 573L663 573L659 569L659 567L653 562L653 560L650 558L650 555L654 551L656 551Z M368 550L371 550L372 553L358 567L356 568L355 564Z M376 556L379 556L383 561L385 561L388 564L388 567L385 567L384 565L382 565L378 569L378 571L375 573L372 578L368 578L368 575L374 569L374 567L378 564L378 561L375 559Z M639 564L646 564L647 566L649 566L654 575L654 579L651 584L649 584L647 587L643 587L642 585L640 581L638 580L638 578L636 577L636 575L634 574L634 572L632 571L632 569Z M639 568L638 572L641 575L641 577L644 579L645 582L649 580L649 574L644 568Z M396 570L400 572L400 575L399 575L399 579L398 579L394 594L390 593L389 585L385 585L383 587L380 587L380 583L383 582L388 576L390 576Z M619 576L623 576L637 590L637 593L636 594L634 593L629 591L625 594L626 599L625 600L622 599L618 580L617 580Z M410 579L413 579L413 583L406 595L406 598L412 601L411 604L409 603L403 601L401 599L401 595Z M604 584L608 584L611 594L613 596L613 599L615 601L615 605L612 605L609 598L607 597L608 607L604 608L599 603L600 608L601 608L601 611L599 612L596 610L596 607L593 603L593 600L590 596L589 591L594 589L599 594L599 596L603 599L602 586Z M423 586L427 587L427 595L430 595L433 591L437 591L437 594L435 594L432 598L427 601L424 609L420 609L421 603L423 601Z"></path>
</svg>